<svg xmlns="http://www.w3.org/2000/svg" viewBox="0 0 36.78 42.47"><defs><style>.cls-1{fill:#fff;}.cls-2{fill:#231f20;}</style></defs><title>Asset 1</title><g id="Layer_2" data-name="Layer 2"><g id="Layer_1-2" data-name="Layer 1"><polygon class="cls-1" points="36.78 31.86 36.78 10.62 18.39 0 0 10.62 0 31.86 18.39 42.48 36.78 31.86"/><path class="cls-2" d="M30.69,14.31c-.32.06-.69.22-1,.25-.58.06-1.23,0-1.82.11-.11,0-.21.09-.32.11-.45.07-1,0-1.39.07-.27,0-.71.12-.89-.14,1.31-.16,2.56-.59,3.88-.86,0,.06-.11,0-.07.14a3.81,3.81,0,0,0,1.71,0c-.08-.34-.44-.12-.68-.11a6.46,6.46,0,0,1-.89-.07c.76-.25,1.86-.16,2.57-.46a1.06,1.06,0,0,1-.57.89,4.86,4.86,0,0,1-.53,0m-.07.57c-.13,0-.19-.06-.25,0a9.15,9.15,0,0,1-2.6.36,5.51,5.51,0,0,1-3.14,0,22.28,22.28,0,0,1,3.49-.25c.37,0,.8-.12,1.39-.18A10.69,10.69,0,0,0,31,14.45h0c.12.11-.27.32-.39.43m-2.21.86a3.1,3.1,0,0,0-1-.14c0-.22.18-.06.29-.07.31,0,.71-.15,1.14-.21s1,0,1.28-.18c-.24.59-1.17.53-1.75.61m-.71.43a5.35,5.35,0,0,1-1.46-.11,19.42,19.42,0,0,0-2.46-.46c-.89-.05-1.7,0-2.53-.07.5-.19,1.24-.13,1.67-.39,0-.13.11-.11.21-.11s-.17,0-.21.11.12.07.07.21c2.11,0,3.75.51,5.92.53-.3.31-.78.25-1.21.29m.75.71a12,12,0,0,0-4.1-.46c-.3,0-.63,0-.93,0A11.39,11.39,0,0,0,21,16c-.05.1,0,.17-.11.25s-.12-.21-.25-.25c-.32-.07-.6,0-.85-.07a.47.47,0,0,0-.14-.29c.3-.35,1.09-.22,1.32-.64a32.38,32.38,0,0,0,4.67-1.42c-.49.15-.79.61-1.28.86a8.33,8.33,0,0,1-1,.32c-.81.26-2,.36-2.92.61,0,.25.45.06.32.32a3.94,3.94,0,0,0,1.35,0,50.7,50.7,0,0,1,5.42.75,1.72,1.72,0,0,1,.93-.07.36.36,0,0,1-.07.5m-.82.57c-.32.05-.66-.25-1-.36-.12,0-.26,0-.39,0a9,9,0,0,0-1.5-.43c0-.07.13,0,.14-.11a33.87,33.87,0,0,1,3.42.43c-.2.17-.42.46-.68.5m-1.28.46c-.22,0-.47-.27-.75-.39s-.81-.29-1.28-.46a11.67,11.67,0,0,0-1.25-.46,11,11,0,0,1-1.6-.36,27.86,27.86,0,0,1,5.74,1.32,1.72,1.72,0,0,1-.85.36M22,16.59c0-.1.19,0,.18-.07.18.19.59.15.78.32.83.05,1.21.55,2,.64.24.26.76.24.93.57-1.66.21-2.49-1.07-3.88-1.46m-1-.39c0-.13.37,0,.36,0a.91.91,0,0,1-.36,0m-.36.36c.18-.06.4-.1.46.07-.09.09-.45.13-.46-.07m-.82-.39c.07,0,.18.06.18.18s-.3-.06-.18-.18m.82-1.82c0,.28-.41.19-.43.46h-.21c.16-.19.32-.55.64-.46m.07-.36h0m5.88-.61c.29-.13.67-.06.93-.29a10,10,0,0,1,2.82-.43c-.08.07-.25.18-.36.11a2.4,2.4,0,0,1-.71.29,13.3,13.3,0,0,1-3.24,1.28,2.77,2.77,0,0,0-1.21.32c0,.12.12.12.11.25A3,3,0,0,1,24,15c-.32,0-.59.16-.78.07.55-.29,1.58-.35,2-.93.45-.14.75-.39,1.25-.53.11,0,.18-.16.28-.21m5.24-.21a2.29,2.29,0,0,1-.71.14c-1,.14-2,.31-2.89.46.18-.14.48-.36.68-.18.07,0,0-.16.07-.18.89-.29,2.18-1.22,2.85-.25M21.81,17.3c.31.21.73.65.64,1a6.72,6.72,0,0,1-.64-1s0-.05,0,0M23.1,19s0,0,0,.07a1.35,1.35,0,0,1,.46.53c-.2,0-.41-.28-.46-.53,0,0,0,0,0-.07s-.17-.14-.21-.25c.16,0,.2.11.21.25m-3.71,1.14v.14h-.14a.13.13,0,0,1,.14-.14m1,1.39c0,.37-.61.17-.75.43a18.68,18.68,0,0,0-2.46.11,3.47,3.47,0,0,0-1.07-.25c-.06-.13.12-.18,0-.21,1.29-.06,2.69.08,4.24-.07m-.78-2.35c.07,0,.11.08.18.11s-.2.18-.25.32c-.16-.11,0-.35.07-.43m0,1c.13,0,.16.1.14.25-.2,0-.19-.14-.14-.25m.21.53c.07,0,.09.09.11.18a.13.13,0,0,1-.18,0c0-.09.06-.11.07-.18m-.39,1.5a0,0,0,0,1,.07,0c0,.05,0,0-.07,0m-.61.07c0-.06,0-.06,0-.11s.08.06,0,.11Zm.14.43c0,.11-.09.13-.14.07s.06-.08.14-.07m-.46-.57c0,.1.06.07,0,.14a.08.08,0,1,1,0-.14m-.32.61s.08-.06.11,0-.16.17-.11,0m-.29-.14c0-.08.05-.07.11-.07a.1.1,0,0,1-.11.07m0,.11c-.08.11-.23,0,0,0m-.32.25s0,0,.07,0,0,0-.07,0m-.29-.07s-.32.09-.29,0,.23,0,.29,0M17,22.15c-.09.12-.17-.1,0,0m-.21.18h0m.64.21a.17.17,0,0,1-.18.07c0,.11.12.09,0,.18s-.08-.07-.18,0,.1,0,.07-.14-.42.09-.46-.14a1.11,1.11,0,0,1,.71.07m.89,1a10.49,10.49,0,0,1-2.07-.21c.31-.43,1-.24,1.71-.21A10.62,10.62,0,0,0,19.64,23c.2,0,.2.2.46.14-.31.46-1.1.34-1.78.36m.07.43h.07V24h-.07Zm-.57-.11c0-.06.06-.08.14-.07v.11c-.07,0-.09,0-.14,0M17,23.64c0-.06.23,0,.18.11s-.12-.08-.18-.11m1.18,1c-.27.26-.81-.05-1.18,0,.12-.12-.08-.13,0-.29s.15,0,.25,0,0-.07-.07-.07.26,0,.36,0-.07,0-.07.07.36.13.36-.07c.63.17,1.48-.26,1.89.25a2.93,2.93,0,0,1-1.5.14m-.11.43a.66.66,0,0,1,.46,0c-.09.1-.41.15-.46,0m1,.25a7.34,7.34,0,0,1-1.21.32c0-.12-.09-.08,0-.18-.3.07-.39-.12-.5-.14,0-.14.19-.16.39-.14,0-.08,0-.11-.11-.11s.18,0,.25,0-.07.05-.07.11c.46.19,1.14-.08,1.5.11,0,.19-.16.05-.25.07m-1.75.07h0m-1-4.38c.1-.05.1.16,0,.11Zm.11-1.25c.09,0,.12,0,.11.14s-.15,0-.14-.11,0,0,0,0m0-.32c.06-.09.16-.15.18-.29s0,.17.07.25.14-.08.18-.14.05.17,0,.25a.76.76,0,0,0-.39.11s-.13-.17-.07-.18m.29.46s0,0,.07,0,0,0-.07,0m-.18.29c0-.1.07-.07.07-.14s.11.07.07.18-.09,0-.14,0m.18.68c.09,0,.09.07.11.14s-.1,0-.11.07,0-.15,0-.21m.29.36a.48.48,0,0,0,.07-.29.24.24,0,0,0,.25.11c.08.14-.07.11-.07.25s.13,0,.18,0,.11-.22.21-.28.05,0,0,0,0,.31-.07.39c-.34-.15-.57.07-.82-.11,0-.08.12-.07.11-.18s.07.07.14.07m0-.93H17s0,.13-.11.11ZM17,19c.06-.07,0-.07,0-.14.46.07.29.84-.07.89.11-.2.13-.49.25-.68S17,19.1,17,19m.75,1.28s.07,0,.11,0,.06.24-.07.21,0-.12,0-.18m-.14-1c0-.29-.22-.39,0-.61.06.08.22.06.29.14s.08-.3.18-.39.09.1.18.11a.44.44,0,0,1-.07.32c0,.05.05.11.14.11a1.71,1.71,0,0,0,.14-.39c.23,0,0,.21.14.32s-.24,0-.21.21c-.3,0-.32-.09-.61-.07s-.1.28-.18.39.17,0,.21.11.1.3,0,.43c-.26,0,0-.31-.14-.43-.45.11,0,.58,0,.89-.14-.17-.36-.36-.36-.57s.28-.32.32-.57m.18-1.53c-.16,0-.11-.26,0-.25s0,.19,0,.25m.78-2.28h0m-1.14,1.46c-.11-.28.18-.46.14-.78a.45.45,0,0,0-.53,0c0-.14.09-.15.11-.25.11.15.31.09.5,0-.11-.22-.06-.37-.18-.57-.12,0-.23.08-.21-.11.06,0,.18,0,.21.11s.11.06.21,0,0-.25.21-.21,0,.67.25.75c.17-.24,0-.6,0-.93-.11,0-.11.06-.21,0a.57.57,0,0,1,.14-.57c.08,0,0,.22,0,.32.14-.17.39-.23.53-.39,0,.16-.09.27-.11.43s-.17,0-.21.07c.24.15-.14,1.09.36.82a3.34,3.34,0,0,1,0,.5c-.1,0-.14-.1-.21-.14s-.2.35-.07.39a1,1,0,0,0-.18.43c-.16,0-.07-.19-.14-.25a3.59,3.59,0,0,1-.46,0c-.12.05-.11.25-.18.36m-.46-2.67h.14a1.33,1.33,0,0,0-.07.25c-.1,0-.07-.15-.07-.25m-.46.93a.46.46,0,0,0,.11-.29c.16,0,.09.27.32.14,0,.11,0,.13,0,.21-.18,0-.37,0-.46-.07m.36,1.85a.2.2,0,0,0-.14,0c0-.13.11-.18.11-.32h.11a.79.79,0,0,1-.07.36M7.81,16a17.92,17.92,0,0,1,2.39-.29A2.68,2.68,0,0,1,7.81,16m8.62.11a3.28,3.28,0,0,0-1.82.39c-.17,0-.15-.11-.32-.07s0,.13,0,.21c-.53.29-1.18.74-1.85,1.07a4.94,4.94,0,0,1-.64.36c-1.14.35-2.12-.27-3-.61a22.25,22.25,0,0,1,4-1c-.69.37-1.6.66-2.17,1-.16,0-.39,0-.43.21.45.16.84-.32,1.14-.46.47-.22,1-.24,1.39-.61.41,0,.74-.33,1.14-.25.16-.13.42-.15.57-.29-.29-.26-.68,0-1,.07-.52.09-1.12.14-1.67.25a7.07,7.07,0,0,1-.89.25c-.43,0-1-.2-1.35.07a1.86,1.86,0,0,0,.57.07c-.37.31-1.16.2-1.46.57-.33-.14-.81-.3-.89-.57a5.07,5.07,0,0,0,1.46-.11c-.25-.29-1.18,0-1.71-.07a.56.56,0,0,1-.07-.54,8.16,8.16,0,0,0,3.88.07,15.77,15.77,0,0,1,4.45-.43c.27,0,.49.23.78.11-.21-.27-.83-.12-1-.43-.72.08-1.48-.44-2.14-.21.42.23.78.05,1.21.25a6.11,6.11,0,0,1-1.28.18.31.31,0,0,0-.43-.18c0,.15.09.15.21.14a19.08,19.08,0,0,1-3.28.54,5.14,5.14,0,0,1,3-.57c-.13-.17-.52-.15-.86-.14a2,2,0,0,0-.75.11,16.79,16.79,0,0,0-3.53.32s0,0,0,.11,0,.05,0,0A2.64,2.64,0,0,1,6.28,15c2.34.39,4.31-.05,6.66.21,0-.31-.27-.17-.39-.18-2.24-.18-4.72.11-6.56-.25-.15-.11-.38-.14-.39-.39.32,0,.91.1,1.14-.11a4.9,4.9,0,0,0-1.35-.07c-.24-.35-.65-.7-.61-1.21.24-.14.7.09.85-.07A11.34,11.34,0,0,1,9.2,14.09,10.13,10.13,0,0,0,5.46,14c.23.2.63,0,1,0a12.52,12.52,0,0,1,1.39.11c-.17.1-.48.07-.61.21.46.17,1.11-.12,1.43-.14.51,0,1.43.4,2,.39.1.09-.17.1,0,.21a.74.74,0,0,0,.71-.32c.87.36,2.07.38,3,.68.28-.11.75.3,1,0-.2-.2-.55-.15-.89-.21-1-.19-2.16-.44-3.14-.71-.11.06-.14.19-.25.25a6.07,6.07,0,0,0-1.21-.25c-.08-.06-.11-.17-.18-.25a12.22,12.22,0,0,0-4.49-1.18,3.13,3.13,0,0,1,1.6-.18c.13,0,.12.12.21.14a10.93,10.93,0,0,1,4.1,1.39c.08,0,0-.1.11-.11-.25-.4-.82-.49-1.21-.75,1.93.49,3.54,1.28,5.49,1.75a.13.13,0,0,1,0,.18c.18-.08.25-.05.53,0,.17.28.67.24.86.5-.07.2-.24.28-.39.39m0,1.39c.09-.14.05.12,0,0m-.39-1c-.29.08-.52.21-.82.29a.86.86,0,0,1,.82-.46Zm-1.67,1a3.62,3.62,0,0,1-.78.86,4.1,4.1,0,0,1,1.39-1.39,1.52,1.52,0,0,1-.61.54M8.2,12.85c.12-.09-.09.12,0,0m7.59,1.75v-.18c.09,0,.08.13.11.21a.17.17,0,0,0-.11,0m1.68.11c.16,0,.17.11.21.21s-.07.12-.18.11,0-.26,0-.32-.23.2-.21.43c-.34-.08,0-.71.21-.43m.36-.78c.13.28-.06.72-.36.57.09-.21.29-.32.36-.57m-.32-1.25c.09,0,.12,0,.11.14s-.15,0-.14-.11,0,0,0,0m.43.29a1,1,0,0,1,.36-.43c.21,0,.19.28.29.43-.22.09-.29-.08-.5.07,0-.06-.06-.08-.14-.07s0,.09,0,.18-.13-.21,0-.18m.32.89h0m.36-.53c0,.21-.29.12-.36.25-.08-.05,0-.09,0-.18s-.12,0-.21,0V13.2a2.38,2.38,0,0,1,.57,0s0,.06,0,.07m.07.78s0,0,0,0h-.07c0-.07,0-.09,0-.14s0,.11.07.11m-.18,2.53c0-.1.12-.08.11,0a.17.17,0,0,0-.11,0m0,1.39c.12,0,.15.21,0,.18s0-.06,0-.18m-.14,1.25a0,0,0,0,1,.07,0c0,.05,0,0-.07,0m-.14,0h0m.11,1.85c-.17,0-.16-.24-.11-.36h.11a.61.61,0,0,1,0,.36m.25-1a.53.53,0,0,1-.18-.46c-.09,0-.11.06-.18.07-.06.2.22.43,0,.5,0-.16-.06-.2-.18-.21-.11-.37.09-.71.43-.64,0,.29.39.57.14.75m.25,1.14c-.14,0-.19-.22-.25,0-.07,0,0-.25,0-.28s.27.09.25.28m0-.28c-.12,0-.09-.27,0-.29s.06.25,0,.29m-.11-1.68c.11,0,.06.08.07.14a.3.3,0,0,0,.21,0c-.11.17,0,.33,0,.5-.25-.06-.28-.27-.25-.54-.06,0-.08-.06-.07-.14m0-3.46s.06,0,.11,0-.06,0-.11,0m.07,2.78c.19,0,.07.21.07.32-.19-.08,0-.16-.07-.32m.14-3.6c-.07.17.05.36-.07.5-.18-.09-.22-.49.07-.5m0-1.07c-.07.17-.18,0-.18-.14s0,.19.18.14m-.07-.82s-.06,0-.11,0,.06,0,.11,0m.11-.25c0-.08-.23,0-.21-.18.11,0,.21.06.21.18m.07,4.6c.08,0,.07.05.07.11s0,0-.07,0Zm.32,1.07a.8.8,0,0,1-.21.07c-.06-.16-.12-.33-.18-.5a.23.23,0,0,1,.18,0c0,.23.23.22.21.46m-.14-3s0,0-.07,0,0,0,.07,0m0,3.92a.17.17,0,0,0,.11,0c0,.09,0,.21-.07.21s-.09-.18,0-.25m-.14-.07c0-.17-.08-.29,0-.39s.11.11.14.18,0,.19-.14.21m-.07,1a.23.23,0,0,1,0-.18c.14,0,.08.23,0,.18m.07.21a.1.1,0,0,1,.07.11c-.12,0-.12-.05-.07-.11m2.28-.43c-.16,0-.17-.11-.21-.21.16,0,.32.08.21.21m.46.78c-.08,0-.11,0-.11-.11s.11,0,.11.11m.11.28c.06,0,.08.06.07.14s.11.22.25.25c.08.55.43,1.33.11,1.67A8.92,8.92,0,0,0,22,21.47c-.06,0-.14-.08-.07-.14m.78,2.39c0,.11,0,.16-.14.14s.06-.13.14-.14m.21.43a.26.26,0,0,1-.28.21c0-.17.14-.29.28-.21m-.21.57c-.08-.15.11-.21.18-.32s.06,0,.11,0c0,.22-.16.22-.28.29m.18.25a.13.13,0,0,1-.14-.14c.05,0,.1,0,.11,0s.08.13,0,.18m.25.64c.05-.12.09.14,0,0M15,20.15c.13-.17.51-.39.64-.14s-.5.29-.64.14m-.25.43a.17.17,0,0,0,0-.11h.14a.13.13,0,0,1-.18.11m-.21.36c-.1-.07,0-.19.07-.25s0,.19-.07.25m-.21.29c-.06,0,0-.06,0-.11s0,.06,0,.11m-.11.25c-.13,0,0-.17,0-.21s.05.17,0,.21m-.5,1.64c-.19-.1-.09-.39,0-.57s.36-.71.43-1c0,.51-.33,1.16-.39,1.57m-.28.71c-.08-.1.05-.21.07-.32s.06,0,.11,0,0,.28-.18.29m.07.32c-.09,0-.19,0-.18-.18s.24.1.18.18m-.29.07h.14c.19.24-.17.34-.14,0m0,.43c-.09,0-.12,0-.11-.14s.17.08.11.14m-.11.25h0m-.25,1.39a0,0,0,0,1,.07,0c0,.05,0,0-.07,0m-.29.25c.05-.12.09.14,0,0m0-6.91a2.93,2.93,0,0,1,.75-.86c-.16.36-.43.78-.75.86m3.06-5.31s0,0,.07,0,0,0-.07,0m-.5-.68c.08-.1.39.18.43.36-.26,0-.22-.31-.43-.36m-1.6-1.25c-.15-.06-.22-.2-.32-.32.14.08.28.15.32.32,0,0,0,.05,0,0m7.84,1.14a.1.1,0,0,1-.11.07.1.1,0,0,1,.11-.07M22,13.1a.81.81,0,0,1-.07.21c-.14,0-.21.07-.36.07A1.05,1.05,0,0,1,22,13.1m1-.78c.18-.18.36-.35.53-.53.07.29-.31.43-.53.53,0,.08,0,.17-.14.14a.2.2,0,0,1,.14-.14m9.19,1c-.19-.4-.4-.76-1-.71a3.39,3.39,0,0,0-1.07-.11c-3.27,0-6,1.66-8.84,2.28,0-.05-.05-.09-.07-.14s.3,0,.29-.21-.25,0-.25-.07c-.15-.38.28-.41.61-.43.31-.43.9-.59,1.1-1.14a3.42,3.42,0,0,0,.64-.18c0-.07,0-.08,0-.14a.59.59,0,0,1,.25-.07c0-.26.21-.36.36-.5.22.07.39-.1.61-.14,0-.09-.15-.12,0-.18s.19,0,.32,0c0-.38.67,0,.68-.46-.19-.07-.22-.3-.46-.32,0,0,.06-.21,0-.21s-.31.29-.43.46c-.05,0,0-.15-.14-.14a5.34,5.34,0,0,1-.89.68c-.09,0,0-.2-.11-.14s-.26.4-.57.36c-.07.36-.44.41-.53.75-.32,0-.37.27-.68.28,0,.19-.12.26-.21.36-.25-.06-.34.19-.5.25s-.14,0-.18,0c-.39.26-.4.88-1,.82,0-.11.07-.11,0-.18s-.15.09-.25.11a.72.72,0,0,1-.11-.21c-.22,0-.39,0-.43-.18.3-.2.79-.42.71-.82s-.51-.25-.93-.32a20.84,20.84,0,0,1,2.42-2.89c-.07,0-.07-.17-.18-.18-.07.25-.31.33-.39.57-1,.51-1.43,1.58-2.21,2.32-.1,0-.07-.19-.21-.18s-.15.11-.25.14,0-.15-.14-.14c-.31.11-.43-.19-.43-.5a.18.18,0,0,1-.11-.11c-.16,0-.2-.06-.32-.07-.2-.37-.59-.55-.82-.89-.19-.07-.24-.28-.46-.32-.25-.21-.47-.64-.89-.57.4.73,1.29,1,1.67,1.71a1.19,1.19,0,0,1,.53.68c.1.1.26.15.32.29-.21.19-.62.18-.89.32-.35.57.32.87.71,1-.13.16-.38,0-.43.21,0-.09-.11-.12-.25-.11.07.19-.09.36-.21.46-.46-.47-1-.83-1.46-1.35-.64,0-.76-.53-1.21-.71-.08-.29-.33-.41-.5-.61s-.09,0-.18,0c-.12-.33-.49-.27-.75-.5-.09,0,0,.16-.11.11a1.38,1.38,0,0,0-.5-.61c-.11,0-.1.11-.25.07a.17.17,0,0,0,0-.11c0-.09.16,0,.11-.11s-.08-.2-.21-.21c0,.15.07.17.07.29s-.23,0-.25,0,.24.12.28.25-.25,0-.36.11c.14.09.21.09.07.21a2.32,2.32,0,0,1,.46.07c0,.07-.1.07-.11.14.2,0,.09.12.14.18a1.67,1.67,0,0,1,.61.11c0,.07,0,.08,0,.14s.27,0,.21.21c.21,0,.37.05.29.21.36.05.47.36.78.46,0,.05-.06.06-.07.11.14,0,.34,0,.36.21s-.21,0-.21.11h.28c0,.21.15.18.29.21a.3.3,0,0,0,0,.21c.2,0,.26,0,.29.18.42,0,.56.27.75.5,0,.08-.16,0-.11.11s.56.34.64.64c-2.52-.75-5.43-2.12-8.48-2.53-.87-.12-2.77-.21-2.78.61a1.87,1.87,0,0,0,.64,1.14A8.89,8.89,0,0,0,7.1,15.91c.14.12,0,.36,0,.61.62.92,1.83,1.26,3,1.6a.53.53,0,0,0,.5.11c1.6.27,2.44-.83,3.53-1.32.08-.16.5-.31.61-.21a3.93,3.93,0,0,0-1,1,1.26,1.26,0,0,1-.25.07.3.3,0,0,0,0,.21c-.18,0-.24.07-.21.25s-.25,0-.29.14.21,0,.21,0c0,.27-.16.31-.39.32,0,.36-.33.53-.61.68a.41.41,0,0,1-.53.32c-.15.34-.64,0-.89.18,0,.16.14.08.11.21-.2,0-.32-.06-.53,0,0,.29.41.09.43.32s-.23.06-.21.21c.17.08.43.11.5-.07.06,0,0,.14.18.11s.15-.31.36-.32c0,.06,0,.18.07.14a.73.73,0,0,0,.68-.5c.12,0,.19.1.32.11a.51.51,0,0,0,.36-.36c.5-.17.52-.83,1-1,.05-.52.46-.68.64-1.07.07.07.06,0,.18,0,.11-.21.12-.52.5-.46.07-.26.39-.17.61-.21a1.33,1.33,0,0,1,.07.25c.44-.06.36.39,0,.18,0,.13-.18.1-.18.25.19,0,.18.15.28.29s.27-.11.36,0a.26.26,0,0,0,0,.32c.07,0,.08,0,.14,0a1,1,0,0,1,.43-.57,1.38,1.38,0,0,0-.25.57c.2.06.21,0,.36-.07,0,.14,0,.17.07.25s.08-.23.25-.21c0,.24-.09.32-.18.43a.2.2,0,0,0-.21-.11c-.08.19-.23.16-.43.18s.14.26,0,.39-.06-.21,0-.29c-.16,0-.22.09-.36.11,0,.17.08.29-.11.32s-.12-.19-.32-.14c-.12.51-.34.73-1,.68a.45.45,0,0,0-.11.46c-.32.13-.38.52-.64.71,0,.08.06.1,0,.21s-.17,0-.18.14a4,4,0,0,0-.61,2.07c-.38.24-.21.79-.46,1.07,0,.11.1.07.07.18-.21,0,0,.29-.25.36.11,0,.18-.09.21,0s-.14.22,0,.36c0,.11-.18.13-.21.25s.15-.08.18,0-.21.08-.25.18.13,0,.11.11-.1.07-.14.11.1.07.07.18c-.2.15-.5.21-.5.57.21,0,.15-.19.32-.18s0,.14,0,.25c.57-.13.89-.87.86-1.53.72-.3.33-1.38.82-1.82,0-.6.31-1,.25-1.53.35-.28.28-1,.64-1.25.28,0,.2-.26.39-.29l.36.21a11,11,0,0,0,0,1.57c0,.08.15.11.18.21-.19.2.09.68-.07.86,0,.07.23-.08.25.07a1,1,0,0,1-.14.5c.07.09.19-.08.21.07a.27.27,0,0,0-.07.25c.11,0,.09-.06.14-.07.12.38.29.7.43,1.07a1.31,1.31,0,0,1,.46.53c.16,0,.07-.19.21-.18s0,.2,0,.36c.27.06.33.34.68.32.13-.2.34-.16.61-.18,0,0,0-.14.07-.14.34.13.4-.38.71-.29.1,0,0-.26.14-.29s.06.1.18.07a1,1,0,0,1,.18-.5c0-.12-.06-.18,0-.32a3.07,3.07,0,0,0,.43-1.28c.07-.06.17-.1.18-.21,0-.74.15-2,.11-2.74.09,0,.08-.06.18,0s.24.33.53.32a5,5,0,0,1,.75,3,.32.32,0,0,1,.32.14c-.11.43.14.81.11,1.21,0,0,.14,0,.14.07,0,.37.39.49.32.82.21.13.13.56.43.61,0,.17,0,.24.07.36.23-.17.23.1.5.07,0-.11-.06-.13,0-.25s.2,0,.25-.07a.91.91,0,0,0-.07-.29c-.24,0-.48-.23-.39-.5,0,0-.17,0-.18-.11s.1-.07.07-.18-.14-.21-.25-.29c0-.32.39-.51.07-.75.14-.49-.41-.85-.61-1.32.08-.12.14-.07.25-.11.06-.21-.09-.32,0-.57-.35-.33-.29-.69-.5-1.18s-.85-.76-.86-1.35c-.1,0-.12-.17-.21-.21-.28.12-.4-.12-.71-.07-.12-.27-.49-.4-.43-.75-.11-.07-.22,0-.28,0a.23.23,0,0,0,0-.18c-.39.12-.74,0-.61-.43.15-.09.23-.08.32-.18s-.15,0-.29-.07-.19-.16-.07-.29a.34.34,0,0,0,.43.14c0-.11-.09-.18,0-.21a.57.57,0,0,0,.5.14c0-.27-.22-.42-.18-.57.25,0,.13.35.46.25,0-.29-.29-.35-.36-.61.23.09.31.33.57.39.07-.14-.14-.19,0-.25.15.1.36.28.57.11a1.07,1.07,0,0,1,.18.36c.06.07.14-.05.21,0s.11.3.21.39c0,.45.45.52.5,1,.12,0,.15,0,.21-.07a11.44,11.44,0,0,1,.75,1.25c.34-.06.51.23.75.29,0-.17-.28-.24-.18-.39.18.13.26.36.46.46.14-.11-.16-.19-.07-.25.29.14.44.39.82.29.1.12.12.33.36.32,0-.2-.27-.21-.18-.36a.23.23,0,0,0,.29,0c0-.13-.13-.09-.11-.21a.8.8,0,0,0,.21-.07c0-.16-.12-.19-.18-.29s-.19.15-.36.14c0-.13,0-.1,0-.21s-.13.06-.25,0c0-.39-.5-.15-.75-.21s-.37-.39-.53-.68c0,0-.17,0-.21-.07-.14-.32-.44-.48-.5-.89-.33-.1-.27-.58-.68-.61,0-.2-.28-.22-.32-.43-.2,0-.46,0-.5-.18a.18.18,0,0,1,.11-.11c1.49.39,2.25,1.65,4,1.64,1.25-.33,2.52-.64,3.21-1.53,0-.25-.08-.32-.11-.5a7.46,7.46,0,0,0,3.46-2.92"/><path class="cls-2" d="M14.65,16.09c.12.07.42,0,.46-.07-.13-.06-.42-.12-.46.07"/><path class="cls-2" d="M11.87,17.37c-.12.06-.3,0-.32.21.36.09.57-.26.93-.29.38-.41,1.21-.38,1.64-.75a.17.17,0,0,1-.11,0,8.67,8.67,0,0,0-2.14.86"/><path class="cls-2" d="M10.41,17.84c.24.23.86,0,1.07-.18-.3-.24-.68.28-1.07.18"/><path class="cls-2" d="M26.59,30.95c-.4.67-.79,1.4-1.78,1.53a5.24,5.24,0,0,1-2-.07,2.48,2.48,0,0,1-.39-.14,3.27,3.27,0,0,1-.57-.53c0-.17.63-.57.85-.82a6.39,6.39,0,0,1,1.07-1.11c.36-.22.74-.3,1.1-.5a.8.8,0,0,0,.32.07,3.65,3.65,0,0,0-1.14.86c.17.13.21-.13.32-.18.49-.21,1-.85,1.57-.46a3.32,3.32,0,0,0-1.11.78c.4-.13.82-.53,1.28-.71a1.19,1.19,0,0,1,.43,1.28M20,32a6,6,0,0,0,1.14-1.46c-.23-.12-.27.15-.39.25a9.56,9.56,0,0,1-.93.54,5.26,5.26,0,0,1-1.07.68c0-.17.33-.4.5-.61a3.22,3.22,0,0,0,.46-.78c-.45,0-.66.46-1,.71a6.17,6.17,0,0,1-.86.5c-.05-.14.15-.23.25-.36.3-.38.54-1,1-1.25a3.2,3.2,0,0,1,1.21-.82,3,3,0,0,1,2.17.18,1.12,1.12,0,0,1,.39.57c0,.21-.48.49-.71.64A10.11,10.11,0,0,1,20,32m-2.14-.5h0m-3.78.86a1.08,1.08,0,0,1-.89-.61,9.34,9.34,0,0,1,3.39-2.24c-.29.25-.72.35-.89.71.7-.24,1.1-1,2-.86-.37.33-1,.4-1.28.82.63-.07,1.29-.91,2-.68-.39.3-.93.45-1.18.89.32-.06,1.27-1.16,1.57-.5-1,1.28-2.08,2.89-4.74,2.46m-1-1s0,0,0,0-.16,0,0,0c0,0,0,0,0,0,0-.16.14,0,0,0m-.32-.75a14.3,14.3,0,0,1-1.39,1.25h-.07s-.05,0,0,0c.3-.21.45-.64.68-.93s.39-.23.25-.46c-.55.34-.89.89-1.43,1.25,0-.35.5-.61.43-1-.57.31-.93.83-1.57,1.07a2.56,2.56,0,0,1,2.57-1.92c1.07-.08,2.05.83,1,1.35,0,0-.05,0,0,0s.11-.2,0-.29c-.48.29-.77.77-1.28,1a12.64,12.64,0,0,1,.89-1.21c0-.07-.07-.1-.11-.14m14-.43a1.9,1.9,0,0,0-.53-.71,3.1,3.1,0,0,0-1.6-.29,6.28,6.28,0,0,0-1.53.89c-.76-1.33-3-1.22-4.06-.25a1.57,1.57,0,0,0-1.14-.68,4.17,4.17,0,0,0-2,.43,2.87,2.87,0,0,0-.78.32l-1.1.71c-.36-.89-1.17-1.06-2.17-1a3,3,0,0,0-2.32,1.78c-.24.72.72,1,1.32,1.07A2.75,2.75,0,0,0,13,31.84c.58,1,2.78.95,3.78.43a2.06,2.06,0,0,0,2.1.54,2.47,2.47,0,0,0,2.78-.93,3.57,3.57,0,0,0,3.31.78,2.62,2.62,0,0,0,1.78-1.85c0-.22,0-.39,0-.61"/><path class="cls-2" d="M36.51,31.7,18.39,42.16.28,31.7V10.78L18.39.32,36.51,10.78Zm.28.16V10.62L18.39,0,0,10.62V31.86L18.39,42.47Z"/></g></g></svg>